<?xml version="1.0" encoding="utf-8"?>
<!-- Generator: Adobe Illustrator 26.2.1, SVG Export Plug-In . SVG Version: 6.00 Build 0)  -->
<svg version="1.1" baseProfile="tiny" id="图层_1"
     xmlns="http://www.w3.org/2000/svg" x="0px" y="0px"
     viewBox="0 0 3242 3242"
     overflow="visible" xml:space="preserve">
<g transform="translate(0.000000,3242.000000) scale(0.100000,-0.100000)">
	<path d="M15668,32415c-1-1-82-6-178-9c-96-4-191-9-210-11s-91-6-160-10s-138-8-155-10c-16-2-66-6-110-10c-44-3-98-8-120-10
		s-71-7-110-10c-71-6-111-10-200-21c-91-10-119-13-200-23c-44-6-102-13-130-16c-133-16-613-90-715-110c-25-5-118-22-163-29
		c-13-2-71-14-128-25c-119-24-141-28-189-37c-19-4-42-8-50-10s-55-12-105-23c-49-11-124-28-165-37c-63-13-524-128-555-138
		c-5-1-23-6-40-11c-415-106-1149-345-1590-518c-71-28-134-52-140-53c-30-7-609-254-760-324c-49-23-106-49-125-57
		c-131-59-654-322-845-425c-271-147-584-326-705-403c-19-12-84-53-145-90c-430-265-910-597-1329-918c-140-108-408-322-476-380
		c-14-12-65-55-115-96c-49-40-94-79-100-85c-5-6-41-38-80-71c-38-33-72-62-75-65s-43-39-90-80s-92-81-101-90c-9-8-63-58-120-110
		c-206-187-810-799-1002-1015c-20-22-52-58-73-80c-130-142-497-580-649-775c-49-63-92-117-95-120c-10-8-260-346-370-500
		c-101-141-383-558-467-690c-242-384-441-725-663-1141c-56-104-325-645-363-729c-8-19-30-66-47-105c-90-197-241-544-255-585
		c-1-3-7-18-14-35c-147-358-335-882-460-1281c-46-150-169-570-176-604c-2-8-24-96-50-195s-48-187-50-195c-6-32-59-257-70-300
		c-2-9-17-85-21-110c-3-14-9-41-14-60c-13-52-71-346-85-430c-3-19-8-42-10-50s-7-31-9-50c-3-19-14-88-25-152s-23-136-26-160
		s-8-50-10-58s-7-39-10-69c-4-30-8-61-10-70s-7-44-11-76c-4-33-9-62-9-65c-1-3-5-36-9-75c-5-38-10-78-12-87c-1-9-6-48-9-85
		c-4-37-9-75-10-83c-3-15-14-114-20-179c-23-233-24-246-40-438c-2-32-7-101-10-153s-7-120-10-150c-14-168-20-444-20-935
		c0-490,4-680,20-935c13-222,16-268,20-305c2-22,7-80,10-129c4-49,8-98,10-110c2-11,6-57,9-101s8-89,10-100s7-51,10-90
		c8-80,16-148,21-185c2-14,7-50,10-80s8-66,10-80s9-63,15-110c5-47,12-94,14-105s7-42,10-70c4-27,9-57,11-65s6-37,10-65
		c5-41,28-183,60-360c24-136,62-330,91-465c9-41,18-86,20-100c3-14,9-41,14-60s11-46,14-60c2-14,12-56,21-95c9-38,19-81,21-95
		c9-44,72-293,114-446c23-82,43-158,45-169c8-37,173-578,215-705c187-564,411-1134,665-1690c67-147,323-666,393-795
		c121-226,145-271,152-280c4-5,21-35,37-65s39-72,51-93c53-91,66-114,81-140c9-16,21-36,26-45c33-55,112-187,125-210
		c9-15,23-38,32-52c8-14,71-113,138-220c68-107,126-197,129-200s12-16,20-30s71-108,140-209s133-193,141-205c41-59,136-192,145-203
		c5-6,21-28,35-47c95-136,532-696,636-816c12-14,68-79,124-145c148-173,256-296,454-510c117-127,686-699,796-800
		c90-83,255-232,315-286c28-24,52-46,55-49c6-7,279-241,345-296c59-49,266-217,316-256c18-15,69-54,111-87
		c673-528,1501-1065,2318-1504c109-59,597-304,695-349c55-26,135-62,177-82c156-73,439-195,638-276c58-23,119-48,135-55
		c85-36,438-167,650-240c354-122,480-162,920-290c60-18,306-84,332-90c10-2,70-17,133-33c145-37,389-94,545-126
		c178-37,317-65,345-70c14-2,36-7,50-10c26-6,42-9,145-26c33-5,69-12,80-14c31-6,205-35,250-41c22-4,51-8,65-11c14-2,45-6,70-10
		c25-3,56-7,69-9s45-7,70-11c25-3,57-8,71-10s50-6,80-10c30-3,66-7,80-10c14-2,50-6,80-9s69-8,85-10c17-3,58-7,90-10
		c33-3,71-7,85-10c14-2,63-7,110-10c47-4,96-8,110-10c39-6,195-18,395-30c55-4,123-8,150-10c384-27,1414-27,1835,0
		c36,2,108,7,160,10s120,8,150,10c30,3,87,7,125,10c67,5,119,10,215,20c25,3,77,7,115,10c39,3,81,8,95,10c32,5,124,16,171,20
		c20,2,50,5,65,8c16,3,54,9,85,12s65,7,75,9c11,2,46,7,79,11c32,4,66,8,75,10c25,4,92,15,135,20c22,3,63,10,90,15c28,5,68,12,89,15
		s48,7,60,10c12,2,37,7,56,10c19,2,46,7,60,9c14,3,63,12,110,20c178,32,441,84,510,101c30,8,66,16,80,19c14,2,57,12,95,21
		c39,9,79,18,90,21c56,11,259,61,410,101c904,237,1757,541,2625,936c470,214,954,465,1446,753c474,276,931,577,1389,912
		c157,115,463,348,475,361c3,4,21,18,42,33c20,15,42,33,50,40c7,7,58,49,113,93c88,70,372,309,385,325c3,3,36,32,75,65
		c38,33,76,67,85,75s56,51,104,95c49,44,130,118,180,165c135,125,677,669,786,789c52,57,104,113,115,125s56,62,100,111
		c126,141,147,165,218,249c23,27,47,54,52,60c25,27,211,253,309,376c59,74,115,144,125,155c45,53,382,510,491,665
		c206,294,459,684,630,970c109,182,250,429,250,436c0,4,6,15,14,23c7,9,37,61,66,116s75,141,102,190c313,584,705,1473,925,2100
		c153,437,276,827,367,1165c51,187,168,655,182,725c2,11,6,30,9,43c3,12,7,32,10,45c2,12,9,42,15,67c5,25,12,56,14,70
		c3,14,15,72,26,130c12,58,23,116,26,130c2,14,9,45,14,70s12,59,15,75c2,17,16,95,29,175c14,80,27,161,30,180s7,44,10,55
		c2,11,7,43,10,70c4,28,11,75,16,105c12,71,17,106,30,210c17,138,20,163,25,200c3,19,7,60,10,90s7,71,9,90c4,32,10,88,21,195
		c10,92,15,154,20,215c12,165,15,200,20,280c4,47,8,121,10,165s8,143,12,220s7,385,8,685c0,479-5,684-20,930c-14,218-24,368-30,435
		c-2,28-7,82-10,120c-3,39-8,84-10,100c-3,17-7,62-10,100c-3,39-8,86-10,105c-3,19-7,58-10,85c-13,109-16,131-20,165
		c-3,19-7,51-9,70c-10,83-19,143-37,267c-11,73-22,145-24,160c-2,16-6,43-9,61c-3,17-8,44-11,60c-27,165-50,297-70,397
		c-13,66-26,134-29,150c-21,120-100,472-162,725c-193,780-490,1673-799,2395c-65,152-70,163-95,220c-12,28-40,88-60,135
		c-86,194-342,718-433,885c-23,44-63,118-89,165c-73,135-107,198-175,314c-35,60-63,111-63,113c0,3-8,17-19,31c-10,15-30,47-44,72
		s-43,74-66,110s-44,72-48,80c-15,32-138,225-317,497c-263,401-669,954-935,1276c-196,236-437,518-493,579c-7,7-51,56-98,108
		c-180,200-704,733-915,930c-135,126-208,192-279,255c-38,33-74,65-80,71c-107,101-545,465-771,639c-49,38-95,74-102,80
		c-140,117-873,633-1068,752c-11,7-112,70-225,141c-315,197-659,396-980,566c-193,103-688,346-855,421c-82,37-174,78-203,91
		c-584,264-1400,557-2132,764c-169,48-570,152-630,164c-14,2-65,14-115,26c-49,12-108,25-130,30c-22,4-105,22-185,38
		c-80,17-161,34-180,37s-42,8-50,10s-28,7-45,10c-16,2-57,10-90,16s-69,13-80,14c-11,2-58,10-105,19c-117,21-126,23-285,46
		c-77,12-153,23-170,26c-16,3-48,7-70,9c-22,3-49,7-60,9c-12,2-48,7-80,11c-33,4-71,8-85,10s-50,7-80,10s-89,10-130,15
		s-105,12-142,15s-77,8-90,10s-61,6-108,10s-101,8-120,10s-75,7-124,10s-109,8-133,10c-23,2-109,7-190,11c-82,4-166,9-188,11
		C16886,32411,15673,32420,15668,32415z M16800,31636c58-3,164-8,235-12c192-9,280-15,445-29c25-2,81-6,125-10c44-3,91-8,105-10
		c14-3,57-7,95-10c39-4,81-8,95-10s50-7,80-10s73-7,95-10c109-14,203-26,230-30c17-2,53-7,80-11c28-3,59-8,70-10s40-6,65-9
		s56-8,70-11c13-3,40-7,60-10c49-6,201-32,290-49c41-8,91-17,110-20s89-17,155-30s131-26,145-29c14-2,75-16,135-30
		c61-14,121-27,135-30c100-18,459-108,680-169c570-159,1110-341,1650-557c108-43,131-53,212-89c26-11,50-21,53-21c2,0,28-11,57-24
		s107-47,173-76c262-116,756-354,957-463c35-19,99-54,143-77c44-24,127-70,185-103s121-68,140-79c29-16,249-146,325-191
		c206-124,705-451,890-584c33-23,93-66,134-95c198-142,769-581,801-618c3-3,61-52,130-109s130-109,135-115c6-6,26-24,45-40
		s67-58,106-93c40-35,83-73,95-84c176-151,653-618,897-878c70-74,138-146,152-161c14-14,59-64,100-111c41-46,77-86,80-89
		s34-39,70-80s68-77,71-80c9-8,272-324,299-359c14-18,30-38,36-44c27-31,242-307,338-437c59-80,113-152,120-161
		c114-142,696-1019,696-1049c0-5,4-10,8-12c6-2,178-288,239-398c258-464,419-777,605-1180c132-284,296-677,416-995
		c86-229,266-755,312-915c12-41,25-82,28-90s6-19,8-25c1-5,27-98,58-205s58-204,61-215c2-11,32-128,65-260c53-210,148-634,165-735
		c3-19,8-42,10-50s6-26,9-40c2-14,11-63,20-110c8-47,18-98,20-115c3-16,8-41,11-55s7-41,9-60c8-63,16-114,22-140c3-14,7-36,9-50
		s11-74,20-135c20-133,22-145,29-215c3-30,8-64,10-75s7-50,10-87c4-37,9-77,11-90s11-95,20-183c8-88,18-182,20-210c3-27,8-86,10-130
		c3-44,7-93,9-110c3-16,8-86,11-155c4-69,8-145,10-170c18-227,24-1048,11-1365c-9-227-15-339-21-425c-3-41-7-109-10-150
		c-2-41-7-102-10-135c-8-86-13-139-21-230c-3-44-8-87-9-95c-2-8-6-49-10-90s-8-82-10-90s-6-46-10-85c-4-38-9-77-10-86
		c-2-9-6-40-10-70c-3-30-8-65-10-79s-9-61-15-105s-12-91-15-105c-5-32-16-99-19-125c-13-83-20-126-41-240c-13-71-27-150-30-175
		c-4-24-8-47-10-50s-6-21-9-40s-12-68-20-107c-9-40-18-87-21-105c-4-18-11-53-16-78c-6-25-12-52-14-60c-137-614-254-1039-446-1615
		c-49-148-93-279-98-290s-31-78-57-150c-42-118-132-351-153-400c-5-11-24-56-41-100c-222-554-564-1252-885-1810
		c-54-93-103-179-109-190s-18-31-27-45s-56-90-104-170c-223-365-583-897-782-1155c-5-6-28-37-53-70c-24-33-48-64-52-70
		c-5-5-61-77-125-160c-101-129-247-310-319-395c-12-14-66-77-120-140c-102-120-130-152-255-291c-123-136-143-157-282-303
		c-307-324-518-526-992-956c-156-141-606-510-805-660c-47-36-87-67-90-70c-9-11-332-245-485-351c-207-145-479-324-690-454
		c-146-91-387-235-392-235c-2,0-22-12-45-26s-60-36-82-48c-23-13-136-75-253-139c-262-144-666-347-888-447c-27-12-81-37-120-55
		c-38-18-135-61-215-95s-158-68-175-75c-222-99-799-313-1165-433c-256-84-715-220-799-237c-9-2-52-13-96-25
		c-281-77-848-201-1160-255c-16-2-55-9-85-15c-30-5-73-12-95-15c-22-4-47-8-55-10c-22-6-220-36-330-50c-25-3-72-10-105-15
		s-85-12-115-15s-73-8-95-11s-56-7-75-9s-57-7-85-10c-27-3-70-8-95-10s-70-7-100-10c-98-10-133-13-240-20c-58-3-116-8-130-10
		s-77-6-140-10c-63-3-142-8-175-10c-308-24-1206-24-1610,0c-179,11-278,17-327,20c-115,9-205,16-238,20c-19,2-73,7-120,11
		c-47,3-92,7-100,9s-46,6-85,10c-38,4-81,8-95,10s-52,7-85,10c-33,4-71,8-85,10s-47,7-75,10c-89,11-149,20-345,50
		c-91,14-175,27-186,29c-12,2-39,7-60,10c-173,28-534,99-764,151c-63,15-126,29-140,31c-14,3-52,12-85,21c-33,8-68,17-78,18
		c-28,6-230,58-417,109c-309,83-863,260-1170,373c-168,61-284,105-315,119c-16,7-70,29-120,48c-82,32-305,123-387,159
		c-504,219-927,427-1368,672c-223,124-263,146-275,155c-5,4-30,19-55,32c-53,30-320,190-370,223c-19,12-60,38-90,57
		c-30,20-142,93-249,164s-202,134-211,139c-64,40-466,331-620,448c-151,115-437,342-510,404c-14,12-45,38-70,58
		c-45,37-143,121-164,140c-6,6-65,57-131,115c-66,57-142,126-170,152c-27,26-61,56-75,68c-97,83-523,501-725,712
		c-213,223-536,584-675,755c-8,10-56,68-106,128c-296,357-644,829-916,1240c-65,99-122,185-126,190c-16,23-237,379-272,440
		c-10,17-48,82-85,145c-165,282-312,553-483,895c-87,173-130,264-257,540c-96,208-264,614-350,845c-25,69-50,134-55,145
		c-15,32-135,381-195,562c-75,231-167,539-210,703c-2,8-16,60-31,115c-14,55-30,116-34,135c-5,19-30,121-55,225
		c-62,256-121,532-164,770c-6,33-13,71-16,85c-9,43-15,80-35,205c-13,76-14,85-25,160c-4,28-9,59-11,69c-3,17-19,128-29,203
		c-1,16-6,46-9,68c-8,57-34,271-40,330c-7,66-15,144-21,203c-2,26-7,70-9,97c-3,28-8,82-11,120c-3,39-7,97-10,130
		c-44,549-53,1507-19,1995c2,36,6,101,9,145c9,140,18,259,30,390c4,33,8,85,11,115c2,30,6,71,9,90c2,19,7,64,10,100c4,36,8,77,11,92
		c2,15,6,49,9,75c6,65,28,230,40,308c3,17,7,48,10,70s7,51,10,65s7,41,10,60c2,19,7,51,10,70s7,53,10,75s7,47,10,55c2,8,6,31,9,50
		s8,46,11,60s7,39,9,57c3,18,7,40,10,50c2,10,7,36,11,58c8,55,66,340,110,540c14,66,28,127,30,135s10,42,18,75c9,33,18,71,21,85
		c6,30,65,259,99,385c98,359,265,886,377,1185c17,47,32,90,34,95c1,6,15,44,31,85s30,77,31,80c0,3,5,14,9,25c5,11,39,97,76,190
		c60,152,155,379,212,505c11,25,21,47,22,50c2,6,32,73,74,163c17,37,45,97,62,135c41,89,259,525,316,632c264,491,457,815,764,1283
		c260,398,639,915,901,1232c194,235,436,518,523,611c5,6,51,55,100,109c274,299,767,791,969,966c22,19,54,48,71,64
		c78,74,376,331,535,461c256,209,609,481,796,614c209,147,272,191,399,277c80,54,153,103,162,108c10,6,50,31,88,56
		c55,36,257,162,365,228c25,16,273,162,310,184c48,28,272,152,345,192c33,18,92,49,130,70c143,78,746,375,760,375c2,0,51,23,110,50
		c59,28,108,50,110,50c3,0,28,11,57,24s98,43,153,66s114,48,130,55c28,12,247,100,325,130c517,199,1018,362,1570,511
		c113,31,212,57,220,59s94,22,190,45s185,43,198,46s76,16,140,30c116,25,188,40,247,50c17,2,37,7,45,9c36,11,404,75,572,100
		c57,9,114,17,128,20c35,5,87,13,140,20c25,3,61,7,80,10s55,7,80,10s61,8,80,10c33,5,58,8,175,20c28,3,66,8,85,10
		c38,4,125,13,205,19c28,3,82,7,120,11c70,6,117,9,295,21c147,9,192,12,385,19c99,4,181,8,182,9
		C15802,31649,16701,31642,16800,31636z"/>
    <path d="M15778,31314c-2-1-82-5-178-9c-96-3-204-8-240-10c-176-10-269-16-305-20c-22-2-74-7-115-10s-97-7-125-10c-27-3-77-7-110-10
		s-73-7-90-10c-35-5-122-15-185-21c-40-3-164-19-230-29c-14-2-47-6-75-10c-27-3-57-8-65-10s-37-6-65-10c-59-7-223-32-268-41
		c-12-2-39-6-62-10c-22-3-85-14-140-24c-55-11-113-22-130-24c-79-14-294-58-420-86c-77-18-151-34-165-36c-137-26-622-157-1040-280
		c-204-60-856-286-965-334c-11-5-96-39-190-76c-553-218-1340-595-1805-864c-36-21-81-47-100-57c-276-155-852-521-1155-734
		c-296-209-805-598-986-753c-19-17-46-40-60-51c-34-28-152-128-165-140c-6-6-39-35-74-65c-34-30-68-60-74-65c-6-6-56-51-111-100
		c-55-50-120-108-144-130c-25-22-198-193-386-380c-292-291-388-390-546-566c-13-15-40-44-59-65c-164-181-339-389-593-704
		c-35-44-155-199-230-300c-48-63-90-119-95-125c-37-46-304-429-407-585c-193-289-307-472-478-765c-54-93-104-176-109-182
		c-6-7-7-13-3-13c5,0,1-8-7-17c-14-17-39-61-128-228c-23-44-57-107-75-140c-42-77-99-189-100-195c-1-3-16-34-35-70
		c-39-75-90-179-130-265c-15-33-51-109-79-168c-28-60-51-110-51-112s-16-37-35-78c-107-234-300-716-421-1052
		c-102-285-259-778-304-955c-5-19-15-53-22-75c-6-22-13-44-14-50c-1-5-14-54-29-108c-14-54-28-106-30-115s-20-82-40-162
		s-39-156-41-170c-3-14-7-33-10-42c-3-10-7-30-10-45c-3-16-9-44-14-63s-11-46-14-60s-7-36-10-50c-8-38-26-122-31-148
		c-2-13-6-31-9-40s-7-33-10-52s-16-91-30-160c-13-69-27-145-31-170c-3-25-8-52-10-60s-7-35-10-60s-8-52-10-60s-7-35-10-60
		s-8-56-10-70c-7-40-13-79-25-170c-11-80-16-122-25-180c-2-14-6-45-9-70s-8-67-12-95c-3-27-7-66-9-85s-8-82-14-140
		c-20-189-22-207-26-271c-3-35-7-89-10-119c-2-30-7-95-10-145c-3-49-7-124-10-165c-26-399-26-1336-1-1695c2-27,7-102,10-165
		c4-63,9-128,11-145c2-16,7-68,10-115s7-101,9-120c3-19,7-66,11-105c3-38,8-81,10-95s6-56,10-93c3-37,8-76,10-85c1-9,6-44,9-77
		c7-64,16-134,21-175c2-14,7-47,10-75c4-27,8-57,10-65s7-35,10-60s15-101,26-170s22-138,25-155c2-16,18-104,35-195s33-176,35-190
		c20-112,151-696,159-710c2-3,6-18,8-31c15-78,149-558,223-799c138-445,383-1115,514-1404c10-23,41-95,70-161
		c171-397,434-925,667-1340c145-258,372-637,434-725c9-14,78-117,152-230c234-355,461-670,741-1025c130-164,303-375,387-469
		c20-23,45-52,57-66c40-48,58-69,132-151c41-46,95-106,120-134c108-120,193-208,485-500c171-171,357-353,414-405s116-106,131-120
		s60-54,101-90c40-36,94-83,119-105c25-23,74-65,110-95s67-57,70-60c7-8,258-212,375-306c152-122,451-345,630-471
		c88-62,165-116,170-121c14-11,389-260,450-298c28-17,70-44,95-60s57-35,71-44c14-8,120-72,235-141c367-222,955-534,1329-706
		c223-103,267-123,271-123c2,0,32-13,66-29c35-15,119-52,188-80s134-56,145-61c93-42,492-193,755-285c237-83,539-179,790-251
		c189-54,670-178,732-189c17-3,34-8,37-10c4-2,26-6,51-10s48-9,51-11c4-2,52-13,106-25c54-11,105-22,113-24c38-8,389-75,420-80
		c19-3,58-10,85-15c28-5,64-12,80-14c17-3,71-12,120-20c50-8,115-18,145-21c30-4,62-9,70-10s40-6,70-10s62-9,70-10c8-2,42-6,75-9
		c33-4,67-9,75-11s47-7,85-10c39-3,84-8,100-10c53-7,118-14,190-20c39-4,81-8,95-10s68-7,120-10c52-4,111-8,130-10s85-7,145-10
		c61-4,130-8,155-10c233-19,1094-26,1425-11c321,13,349,15,415,21c36,3,101,7,145,10s98,7,120,10c22,2,78,7,125,11c47,3,92,7,101,9
		s52,6,95,10c43,3,90,8,104,10s50,7,80,10c30,4,67,8,82,11c15,2,49,6,75,9c43,4,75,8,153,20c14,2,50,7,80,11s57,8,60,9s30,5,60,9
		s78,11,105,16c28,5,64,11,80,14c46,6,157,25,185,31c14,3,52,10,85,16c33,5,105,19,160,30s114,22,130,25c17,3,80,16,140,29
		c61,14,130,29,155,34c25,6,131,31,235,56c105,26,197,48,205,50c105,23,594,164,805,232c510,165,1118,392,1413,529
		c29,13,54,24,57,24c12,0,659,302,725,339c8,4,87,45,175,91s195,103,239,127c43,23,80,43,81,43c2,0,105,58,228,129
		c453,260,843,510,1300,834c17,12,54,39,82,60c27,20,55,41,60,45c68,50,290,216,303,226c132,104,438,351,442,356c3,3,34,30,69,59
		s70,58,77,64c6,7,38,35,70,62c83,71,336,297,419,375c229,214,731,727,921,940c27,30,69,77,94,105c85,93,360,419,456,541
		c451,565,818,1090,1175,1680c37,62,78,132,92,155c14,24,47,82,74,129s63,110,80,140c16,30,44,80,61,110c105,187,414,802,485,965
		c19,44,46,105,60,135c107,233,295,695,394,970c114,317,323,963,348,1076c2,10,20,75,39,144c29,104,77,289,91,350
		c73,309,91,391,121,540c14,69,28,134,30,145s6,34,9,50c3,17,10,53,15,80c5,28,11,61,14,75c2,14,11,63,20,110c8,47,18,101,21,120
		s10,60,15,90s12,75,15,100s8,57,11,73c9,55,13,83,19,137c4,30,9,62,10,70c2,8,6,44,10,80s8,72,10,80c1,8,6,42,9,75c4,33,9,76,11,95
		c5,38,13,115,20,200c3,30,7,73,10,95c2,22,7,78,11,125c3,47,8,101,10,120c1,19,6,89,9,155c4,66,8,136,10,155c25,236,25,1376,0,1675
		c-2,28-7,97-10,155c-4,58-8,121-10,140s-6,80-10,135s-8,107-10,115s-6,53-10,99c-4,47-8,92-10,100c-1,9-6,48-9,86c-4,39-9,81-11,95
		c-4,27-12,90-20,160c-6,50-14,112-20,150c-2,14-6,45-10,70c-3,25-8,56-10,70c-3,14-7,41-9,60c-4,32-8,57-22,145c-3,17-7,37-9,45
		s-6,38-10,65c-3,28-12,82-20,120c-8,39-17,88-21,110c-3,22-10,59-15,83c-5,23-12,59-15,80c-3,20-8,40-10,43c-2,4-6,24-10,44
		c-3,21-8,47-10,59c-3,11-9,42-14,67c-14,72-89,394-117,504c-13,55-26,107-28,115c-23,99-135,493-198,700
		c-286,930-713,1937-1171,2765c-19,33-51,92-72,130c-20,39-73,131-117,205c-43,74-88,151-99,170c-122,212-471,747-664,1015
		c-100,140-159,221-164,225c-3,3-52,68-109,145c-126,168-380,487-475,595c-12,14-44,52-71,85c-28,33-52,62-55,65s-23,25-45,50
		c-123,140-173,196-195,220c-14,15-59,65-100,111s-223,232-405,414c-294,294-433,428-600,576c-27,24-61,55-75,69s-68,61-120,105
		s-97,82-100,85c-12,14-366,305-475,390c-66,52-124,98-130,102c-36,30-297,222-417,307c-79,56-150,107-158,114
		c-34,27-358,242-525,349c-213,135-579,354-750,449c-1095,603-2116,1023-3285,1353c-199,56-574,152-710,181c-101,22-489,103-520,108
		c-43,8-144,27-165,31c-32,5-87,15-120,20c-16,3-70,12-120,20c-49,8-106,17-125,20s-82,12-140,20s-127,18-155,21c-27,4-61,8-75,11
		c-14,2-50,6-80,10c-30,3-65,7-78,9s-53,7-90,10c-37,4-78,8-92,11c-14,2-56,6-95,9c-38,3-86,8-105,10s-75,7-125,10
		c-49,4-101,8-115,10s-74,7-135,10c-60,3-141,8-180,10c-186,13-347,17-787,19C15995,31316,15779,31316,15778,31314z M16305,30759
		c370-93,806-655,991-1275c30-102,59-241,73-346c9-68,7-439-3-573c-3-33-7-103-10-155c-4-52-8-117-11-145c-2-27-7-86-10-130
		c-12-161-27-344-40-490c-3-33-7-89-10-125s-7-85-10-110c-6-61-13-141-20-225c-3-38-8-86-10-105s-7-66-10-105c-4-38-8-81-10-95
		s-7-59-10-100c-4-41-8-93-10-115s-6-67-10-100c-3-33-7-80-10-105c-2-25-7-72-11-105c-3-33-7-76-9-95s-7-66-10-105c-4-38-8-81-10-95
		s-7-61-11-105c-3-44-8-89-10-100s-6-54-10-95c-3-41-7-86-9-100s-6-59-10-100c-11-132-25-175-74-219c-58-52-141-74-291-76
		c-192-3-317,51-350,150c-9,27-12,448-14,1638c-1,881-6,1616-9,1632c-50,214-118,318-178,272c-22-17-65-93-83-147
		c-44-131-44-130-46-1794c-1-1288-3-1584-14-1610c-19-47-86-99-152-120c-73-23-240-28-332-11c-102,20-168,60-196,120
		c-19,39-22,58-41,270c-3,33-8,76-10,95c-5,40-12,117-20,204c-3,33-8,73-10,90s-9,83-15,146s-13,131-15,150c-3,19-7,69-10,110
		s-8,86-10,100s-6,57-10,95c-5,71-12,141-20,205c-2,19-7,69-10,110s-8,91-10,110c-3,19-7,63-10,98c-8,93-14,172-19,217
		c-2,22-7,78-11,125s-8,99-10,115c-2,17-6,66-10,110s-8,100-10,125c-10,118-15,181-20,250c-3,41-7,100-10,130c-2,30-7,97-11,149
		c-3,52-8,115-9,140c-2,25-6,159-8,296c-6,278,2,351,54,565c72,293,232,631,415,876c148,198,308,349,454,427c65,35,155,64,205,66
		c28,2,52,4,53,6c2,2,9,2,15,0C16250,30773,16278,30766,16305,30759z M12389,30175c195-51,391-161,626-355c86-70,311-309,386-410
		c191-256,295-466,368-742c47-176,182-781,215-958c2-14,16-79,30-145s28-134,31-151c2-17,18-96,34-175c34-166,74-371,101-514
		c11-55,22-111,25-125s7-40,10-59c2-18,7-41,9-50c3-9,8-29,10-46c3-16,17-91,31-165c25-130,80-423,91-485c3-16,11-61,19-100
		c8-38,17-83,19-100c3-16,10-55,16-85s13-71,16-90s9-49,13-65c20-74-7-155-69-208c-44-37-90-61-185-96c-59-22-151-40-208-41
		c-138-1-215,61-243,195c-1,6-23,80-48,165c-26,85-48,162-50,171c-3,8-12,40-21,70c-16,53-68,230-158,539c-25,85-57,193-71,240
		c-13,47-47,162-75,257c-56,191-119,406-156,528c-13,44-56,190-95,325c-192,660-178,614-223,710c-56,121-143,226-203,244
		c-52,16-84-85-79-251c2-59,11-135,19-168c9-33,18-69,21-79c2-11,11-40,19-65s35-116,60-201s68-234,96-330c29-96,56-188,60-205
		c4-16,65-223,135-460c69-236,189-644,266-905c76-261,147-500,156-530s18-59,20-65c1-5,13-51,27-101c32-119,24-158-45-225
		c-48-47-103-77-199-111c-70-24-90-28-180-35c-144-11-208,27-260,155c-18,42-38,91-45,107c-19,45-101,248-319,790
		c-109,270-201,499-206,510c-35,76-450,1149-499,1290c-17,50-36,99-41,110s-16,40-24,65s-29,86-46,135c-30,84-77,231-85,265
		c-45,193-55,285-55,500c1,203,7,267,45,473c56,298,175,602,313,797c98,138,227,240,337,266C12190,30201,12308,30197,12389,30175z
		 M20343,30170c152-57,310-240,427-495c99-213,182-516,205-750c3-33,8-80,11-105c7-64,6-298-1-367c-28-259-70-405-280-968
		c-136-363-553-1429-648-1655c-6-14-11-27-12-30s-7-17-13-32c-24-59-226-556-241-595c-9-23-20-45-24-49s-7-13-7-21c0-7-8-32-19-56
		c-10-23-38-88-61-144c-64-156-117-191-275-180c-188,13-374,105-423,210c-23,50-22,91,7,181c11,33,83,279,161,546
		c77,267,149,512,160,545c10,33,37,125,60,205c22,80,45,156,50,170s32,106,60,205c64,223,185,633,206,700c9,28,17,57,19,65
		s17,62,35,120c17,58,38,128,46,155c8,28,16,57,19,65c47,154,64,257,60,370c-3,102-21,167-52,187c-20,14-26,13-59-7
		c-65-41-159-180-203-300c-24-65-14-33-286-960c-119-404-226-771-240-815c-13-44-44-150-69-235s-81-279-126-430s-83-282-85-290
		c-28-114-91-302-110-326c-57-74-182-92-345-49c-153,41-260,107-295,181c-24,51-27,80-15,138c6,28,12,60,14,71c8,48,16,92,21,115
		c9,42,14,73,20,115c4,22,8,47,10,55c3,8,23,112,45,230s42,226,45,240c11,57,27,137,69,360c25,129,47,246,50,260s10,50,16,80
		s13,69,16,85c3,17,20,107,39,200c19,94,36,181,39,195c2,14,12,61,21,105s19,91,21,105c3,14,11,57,20,95c15,66,70,332,80,385
		c3,14,21,95,40,180s37,162,39,172c2,9,18,75,35,147s31,133,31,136c-2,20,92,263,139,360c50,101,159,281,195,321c5,7,19,25,30,40
		c80,113,267,310,405,426c221,185,496,331,680,361C20163,30203,20287,30191,20343,30170z M8825,28519c252-40,547-160,816-330
		c98-62,209-140,245-174c6-5,33-29,60-51c129-109,271-270,359-405c50-78,165-268,165-274c0-2,15-30,34-62c39-68,75-133,124-223
		c19-36,47-87,62-115c15-27,45-81,65-120c21-38,54-101,75-140c36-67,196-372,305-580c29-55,94-181,145-280s123-238,160-310
		c37-71,165-321,283-555l216-425l-42-82c-23-44-67-129-97-187l-55-107l-82-41c-126-62-239-64-299-3c-15,14-88,124-184,275
		c-110,173-178,279-255,398c-38,60-104,161-145,225s-116,181-167,260c-50,78-117,183-149,232c-32,50-81,126-109,170
		c-29,44-94,145-145,225c-131,203-183,285-286,443c-49,76-96,149-104,162c-135,217-128,206-205,267c-178,140-297,230-300,226
		c-3-3,17-93,50-228c2-8,14-60,25-115c19-86,30-112,78-188c32-49,80-124,107-167c28-44,56-87,62-97c7-10,58-88,112-173
		c55-85,124-192,153-238c29-45,64-100,78-123c14-22,92-144,174-272c178-275,208-322,401-622c81-126,158-246,170-265
		c114-174,352-550,361-570c27-63-4-157-79-233c-76-78-114-97-203-102c-301-16-334-17-347-3c-7,7-48,58-92,113
		c-78,99-299,376-322,405c-39,47-382,483-403,510c-14,19-35,45-46,59c-12,14-106,134-208,266c-103,132-192,247-199,255
		c-118,146-617,809-617,819c0,5-4,11-8,13c-10,4-160,215-226,318c-76,119-182,355-212,470c-2,8-15,58-28,111c-76,290-99,638-61,929
		c4,25,8,59,10,75c2,17,16,73,29,126c88,339,236,496,491,522C8618,28538,8753,28531,8825,28519z M23935,28519
		c168-39,270-141,369-370c19-45,63-218,72-284c3-27,8-52,9-55c6-11,18-215,18-310c0-87-10-246-17-287c-3-17-10-63-22-153
		c-10-69-73-307-107-400c-56-154-122-281-226-438c-92-138-404-561-607-823c-49-64-100-131-114-149c-40-53-290-373-308-395
		c-10-11-28-36-42-55s-32-44-42-55c-9-11-139-175-289-365c-149-190-283-358-296-375c-29-36-13-15-203-255c-85-107-160-201-167-208
		c-13-13-109-12-353,4c-85,5-123,25-201,106c-69,70-95,140-82,210c3,14,83,146,178,294c96,148,197,305,225,349c27,44,79,125,115,180
		c35,55,92,143,125,195c34,52,118,184,188,292c116,181,163,254,291,453c24,39,73,115,109,170c102,158,171,265,257,400
		c44,69,104,162,132,206c47,72,69,128,87,219c2,14,20,90,40,170c19,79,33,146,31,148s-86-60-187-138c-153-118-189-152-223-204
		c-22-34-74-115-115-180c-41-64-115-179-165-256c-49-77-111-172-137-212c-213-334-275-431-309-481c-21-32-39-59-39-61s-31-50-68-107
		c-69-105-205-317-365-567c-48-75-114-177-146-227c-31-49-110-172-175-272c-103-160-122-184-160-202c-75-37-184-21-296,43
		c-47,27-42,19-196,317l-44,85l43,85c24,46,126,246,227,444c100,198,213,419,250,490c37,72,109,211,160,310s114,221,140,270
		c26,50,78,149,115,220c132,253,243,461,398,745c171,315,333,578,417,679c343,412,961,762,1425,808c33,3,61,7,63,8
		C23725,28541,23892,28529,23935,28519z M6015,25946c55-3,115-8,133-11c17-3,44-7,60-9c186-27,420-92,602-168
		c246-104,405-204,600-377c148-132,981-971,1315-1326c41-44,175-184,457-480c42-44,95-100,118-125c82-88,326-346,403-425
		c92-95,89-56,28-359l-28-140l-189-63c-104-35-194-62-201-61c-7,2-38,26-70,55c-49,43-497,431-573,497c-54,46-175,151-180,156
		c-3,3-70,62-150,130c-80,69-147,127-150,130s-36,32-75,65c-38,33-86,74-105,91c-19,18-141,123-270,234s-248,214-265,229
		c-16,14-97,84-180,156c-82,71-157,136-166,144c-65,63-132,110-188,132c-36,14-75,30-86,34c-11,5-22,9-25,10s-14,5-25,10
		c-146,59-235,92-235,87c0-21,226-402,253-427c40-37,107-95,177-155c29-25,58-50,64-55c6-6,61-53,121-105c61-52,112-97,115-100
		s55-48,115-100c61-52,115-99,121-105c6-5,36-31,65-56c184-159,318-275,344-298c17-14,77-67,135-116c58-50,107-92,110-96
		c4-4,360-313,604-523c32-28,64-56,70-61c6-6,49-43,96-84c126-109,151-132,146-139c-2-4-7-23-10-42s-13-73-21-120
		c-9-47-18-103-21-125c-4-22-11-55-18-74c-11-33-15-35-196-97c-102-35-191-64-199-64c-15,0-214,139-1039,724
		c-339,240-437,311-474,338c-9,7-133,97-275,200c-295,214-465,339-508,372c-16,13-79,61-140,107c-375,282-526,421-664,612
		c-107,148-240,391-290,527c-7,19-17,44-22,55c-12,28-65,184-74,220c-5,17-9,35-11,40c-1,6-14,64-28,130c-77,373-40,671,103,815
		c103,104,273,167,501,186c36,3,66,6,67,7C5789,25956,5903,25952,6015,25946z M26653,25949c71-2,115-7,203-23c63-12,171-49,227-79
		c219-115,297-368,243-787c-2-14-11-61-20-105s-18-90-21-103c-6-34-46-165-56-184c-5-10-9-22-9-28c0-22-76-202-136-322
		c-141-283-296-488-505-668c-231-200-1153-880-1982-1462c-184-129-695-490-712-502c-11-8-38-28-60-44l-40-29l-125,44
		c-69,24-160,55-202,69c-43,15-77,29-76,33c1,3-3,35-10,71s-14,79-17,95c-3,17-12,64-20,105c-24,127-24,124,22,163
		c23,19,48,41,56,48c8,8,27,25,43,38c37,31,320,277,399,346c59,52,147,127,195,169c40,34,861,745,906,785c71,62,152,132,359,311
		c110,95,224,194,253,219c49,43,67,67,119,161c11,19,34,60,50,90c17,30,50,86,72,125c23,38,41,73,41,76c0,4-99-32-219-80
		c-220-86-249-103-345-196c-12-11-37-33-56-49s-62-52-95-81s-114-99-180-156s-125-108-131-114c-6-5-40-35-75-65s-86-75-114-99
		c-27-24-61-53-75-65c-54-46-487-420-515-445c-54-47-327-284-445-386c-63-54-117-102-120-105s-84-73-180-155c-96-83-178-154-182-160
		c-7-10-69,8-293,85l-110,37l-12,59c-11,56-15,76-28,149c-3,17-10,53-16,81c-5,28-12,63-15,79c-3,15-6,31-7,35s61,74,138,155
		c77,82,157,167,178,189c21,23,93,99,160,170s139,147,161,170c21,23,109,115,196,206c86,91,179,188,206,217
		c377,398,1129,1157,1298,1311c115,105,276,232,294,232c6,0,12,3,14,8c6,14,228,130,333,174c123,51,389,130,485,144c19,3,41,7,48,10
		c8,2,37,7,65,10c29,3,59,8,67,10c8,3,73,8,145,11c71,3,132,7,134,9s7,2,10-1C26573,25953,26611,25950,26653,25949z M16695,24356
		c22-2,83-7,135-11c96-6,134-10,225-19c135-15,232-26,250-30c11-2,43-7,70-10c28-4,66-10,85-12c658-94,1444-327,2115-629
		c382-171,935-484,1240-700c324-229,616-455,761-590c6-5,45-39,85-75c93-82,484-469,564-559c33-37,90-100,127-141
		c225-253,587-737,765-1026c240-388,429-750,587-1119c43-99,81-189,86-200c21-47,141-380,178-495c56-171,126-417,167-585
		c67-276,134-637,170-920c10-82,20-178,31-300c3-44,8-93,10-110c24-253,24-889,0-1225c-7-95-18-208-21-230c-3-14-7-52-10-85
		c-5-62-12-122-20-165c-2-14-7-52-11-85c-3-33-8-62-9-65c-2-3-6-30-10-60c-3-30-11-74-16-98c-5-23-12-59-15-80c-9-56-59-299-68-330
		c-3-9-8-31-11-49s-10-45-16-60s-10-29-9-31c3-5-13-69-47-192c-19-69-38-138-43-155c-28-103-129-415-157-485c-4-8-7-17-8-20
		s-5-14-10-25c-4-11-27-71-51-133c-257-668-629-1337-1064-1917c-111-147-320-410-339-425c-3-3-28-32-56-65c-206-245-689-713-975-945
		c-30-25-57-47-60-50s-52-42-110-85c-58-44-107-82-110-86c-19-22-457-321-577-395c-62-37-248-149-268-160c-199-112-509-271-645-332
		c-515-230-933-376-1435-501c-138-34-446-100-540-115c-16-3-70-12-120-20c-49-8-108-17-130-20c-66-9-128-17-155-21
		c-47-7-115-15-170-20c-30-3-80-7-110-10c-77-8-156-13-295-22c-158-9-739-9-885,0c-226,15-367,26-410,32c-14,2-52,7-85,10
		c-33,4-105,13-160,20c-55,8-122,17-150,20c-27,4-57,8-65,10c-8,3-32,7-54,11c-21,3-48,8-60,10c-11,2-37,7-56,10
		c-546,92-1247,308-1825,564c-139,61-477,227-590,290c-177,98-341,194-435,254c-259,167-506,340-650,453c-175,138-329,267-465,387
		c-82,72-528,515-601,596c-211,235-454,539-623,780c-52,74-216,319-236,352c-5,9-32,53-60,98c-27,45-63,105-78,134
		c-16,28-36,62-45,76c-40,61-127,224-226,425c-146,295-247,532-358,835c-33,91-61,170-62,175c-1,6-19,60-39,122
		c-30,92-88,293-137,473c-12,45-68,287-74,320c-2,14-14,71-25,126c-11,56-25,130-31,165c-5,35-12,73-14,84s-7,42-10,68
		c-4,27-9,56-10,65c-2,10-7,43-11,76c-3,32-8,68-10,80c-2,11-6,52-10,89c-3,37-8,76-10,86c-2,9-6,57-10,107c-4,49-8,100-10,114
		c-26,174-26,1000,0,1260c2,19,6,69,10,110c3,41,7,91,10,110c2,19,7,60,10,90c7,61,14,122,20,160c2,14,7,45,10,70s12,83,20,130
		s16,101,19,120c5,29,26,140,52,270c96,478,285,1070,499,1562c159,365,424,862,597,1120c21,31,38,59,38,62c0,9,226,332,308,441
		c84,112,243,314,283,360c350,404,590,646,954,964c17,15,77,65,135,111c58,47,107,88,110,91s78,61,168,128c270,203,636,441,917,597
		c39,21,88,49,110,61c54,30,403,203,490,243c322,148,762,310,1105,409c157,45,370,100,415,107c22,3,43,8,46,10c7,4,129,31,179,40
		c14,2,45,9,70,14c49,10,251,45,315,55c23,3,50,7,60,9c11,2,45,7,75,11c30,3,66,8,80,10s54,6,90,10s76,8,90,10s57,6,95,10
		c39,3,93,8,120,10c28,3,99,7,159,10s111,7,113,9C15852,24369,16646,24362,16695,24356z M4485,22727c11-3,49-8,85-12
		c99-11,272-51,389-91c89-30,373-165,541-256c25-13,81-44,125-68c70-38,411-227,565-313c30-17,145-82,255-145s215-123,234-134
		c231-132,407-233,501-288c63-37,131-77,150-87c32-18,146-85,600-351c80-47,165-96,190-110c65-36,90-61,112-112c37-85,16-208-64-362
		c-68-132-160-211-246-210c-42,1-66,10-308,123c-33,15-188,86-345,157c-156,72-313,143-349,160c-36,16-85,39-110,50s-79,36-120,55
		c-115,53-184,84-247,113c-97,44-484,220-558,254c-38,18-113,51-165,75s-129,59-170,78s-127,58-190,87s-149,68-190,87
		c-128,60-212,90-294,107c-141,29-268,15-274-31c-5-33,31-93,90-149c110-105,142-124,423-252c110-50,234-106,275-125s102-47,135-62
		c55-25,191-87,340-155c33-15,112-51,175-80s144-66,180-82c36-17,164-75,285-130c121-56,281-129,355-163s302-137,505-229
		c310-141,376-175,406-207c78-84,66-224-37-419c-68-130-153-200-241-200c-31,0-369,108-603,193c-8,3-64,22-125,42
		c-178,60-433,147-695,238c-135,47-312,108-395,137c-82,28-159,55-170,60s-148,54-305,110c-932,333-1169,437-1410,621
		c-162,123-341,304-460,464c-25,33-47,62-50,65c-25,22-160,250-213,357c-30,61-121,303-117,311c1,1-4,26-10,55
		c-66,322,65,527,439,686c39,17,71,28,71,25c0-2,12,2,28,9c28,15,255,71,329,82c86,12,110,15,178,21c39,4,71,8,73,9
		C4063,22739,4464,22731,4485,22727z M28495,22721c55-6,120-16,145-21s56-12,70-14c171-29,398-115,530-200c241-156,306-363,215-680
		c-149-511-601-1063-1082-1322c-32-17-92-46-133-64s-88-38-105-45c-45-20-307-122-415-162c-52-19-129-48-170-63
		c-41-16-196-72-345-125c-148-53-283-101-300-108c-16-6-34-12-40-13c-5-2-68-23-140-49c-133-48-535-188-660-230
		c-38-13-135-46-215-74c-672-230-889-301-924-301c-92,0-178,75-251,220c-52,105-74,179-76,258c-2,68,25,136,64,163
		c12,8,114,57,227,109c113,51,248,113,300,138c52,24,104,47,115,52c20,8,1006,458,1155,527c41,19,114,52,162,74c48,21,95,42,105,47
		c19,10,40,20,228,105c66,30,149,68,185,85c36,16,121,56,190,87s141,64,160,73c155,70,330,235,330,309c0,84-282,64-490-33
		c-30-15-203-94-385-176c-181-83-372-170-424-194c-51-24-95-44-96-44c-3,0-88-39-225-102c-36-17-168-77-295-135
		c-126-57-252-115-280-128c-27-13-75-34-105-48c-61-27-277-126-355-162c-27-13-153-70-280-128c-126-57-256-117-289-132
		c-140-64-245-7-346,186c-57,111-80,189-81,277c-1,64,23,115,72,153c19,15,237,145,484,289c248,144,479,279,515,300
		c197,115,667,385,765,440c22,12,69,39,105,60c71,41,103,59,195,110c33,18,74,40,90,50c33,19,119,67,205,113c30,16,60,33,65,37
		c6,4,48,27,95,52s121,65,165,88c350,188,496,251,710,306c17,4,32,8,35,9c3,0,28,5,55,10c28,4,57,10,65,11
		C27953,22737,28293,22745,28495,22721z M3740,19186c14-2,43-7,65-10c22-4,51-8,65-11c14-2,36-7,50-9c42-7,244-46,265-51
		c11-3,74-17,140-30c66-14,158-34,205-45c47-10,137-31,200-45c131-30,148-34,475-111c132-31,247-57,255-59s51-12,95-24
		c44-11,91-22,105-25c14-2,165-39,335-80c403-99,395-97,430-107c37-10,352-88,380-93c11-2,40-9,65-16s52-13,60-15
		c69-14,268-69,289-80c33-17,63-50,87-95c16-29,19-56,18-160c0-69-3-136-6-150c-36-177-112-277-215-282c-36-2-140,8-173,17
		c-8,2-37,6-65,10c-47,5-67,8-139,20c-16,2-50,7-75,11c-25,3-56,7-67,9c-12,2-48,7-80,11c-33,4-61,9-64,9c-3,1-32,5-65,9
		c-33,5-69,10-80,12c-11,3-38,7-60,9c-22,3-51,7-65,10c-14,2-52,7-85,11c-33,3-62,8-65,9c-3,2-33,7-65,10c-33,4-63,9-66,11
		c-3,1-37,6-75,9c-38,4-72,9-75,11c-3,1-32,6-65,9c-32,4-61,8-64,10s-34,6-70,10c-35,3-67,8-70,10s-32,6-65,9c-33,4-67,8-75,11
		c-8,2-35,6-60,9s-90,12-145,21c-55,8-120,18-145,20c-25,3-56,8-70,10c-14,3-47,7-75,11c-27,3-59,8-69,10c-11,2-56,8-100,14
		c-45,6-94,13-111,16c-68,11-83,13-160,24c-44,6-91,12-105,15c-47,7-100,15-152,21c-29,3-73,10-96,14c-116,21-319,0-408-41
		c-96-46-60-113,104-194c87-43,181-68,336-90c65-9,128-18,140-20c11-2,42-6,67-9c25-4,57-9,70-11s92-13,174-25c83-12,159-23,170-24
		c32-5,97-15,135-20c19-3,116-17,215-31s196-28,215-30c19-3,46-7,60-10c29-6,87-14,150-20c25-3,68-9,95-14c46-9,75-13,179-26
		c22-3,51-7,65-10c14-2,46-7,70-10c23-3,55-7,70-9c14-3,46-8,71-11s56-8,70-10c31-5,164-25,205-30c17-3,50-7,75-10
		c51-7,93-13,130-20c14-3,48-7,76-10s59-7,70-9c24-5,87-14,139-21c23-3,50-7,60-9c11-2,47-7,80-12c33-4,63-8,68-10c4-1,17-2,30-3
		c13,0,41-13,64-28c66-43,101-134,97-253c-7-225-83-390-193-420c-35-9-115-8-406,5c-66,3-169,8-230,10c-186,7-387,16-450,20
		c-33,2-132,6-220,10c-88,3-190,8-227,10c-37,3-125,7-195,10s-155,7-188,9c-33,3-123,7-200,11c-77,3-160,8-185,10s-97,6-160,10
		c-63,3-135,8-160,10c-25,3-90,7-145,10s-122,7-150,9c-27,3-86,8-130,11c-130,10-295,24-345,30c-19,3-55,7-80,10
		c-105,12-138,18-200,32c-36,8-69,16-75,17c-83,19-245,81-373,142c-515,246-992,725-1068,1071c-11,52-12,164-3,196c6,18,12,37,13,42
		c35,124,203,309,398,438c178,119,364,207,593,282c179,59,360,98,515,111c41,4,76,8,78,9C3403,19199,3714,19192,3740,19186z
		 M29115,19187c11-3,45-8,75-12c58-8,79-11,120-20c14-3,36-7,49-10c247-47,596-188,816-330c118-76,164-113,255-204
		c217-218,250-403,119-666c-136-272-482-610-829-808c-188-108-461-221-583-242c-18-3-48-10-67-15s-57-11-85-14c-27-4-61-8-75-11
		c-23-4-62-8-181-20c-26-2-84-7-130-10c-46-4-100-8-119-10s-80-6-135-10c-55-3-120-8-145-10c-25-3-90-7-145-10s-131-7-170-10
		c-157-11-290-18-545-30c-52-2-135-7-185-10c-49-3-137-7-195-10c-58-2-157-7-220-10s-162-8-220-10s-154-7-215-9c-60-3-168-8-240-11
		c-71-3-177-8-235-10c-419-19-417-19-481,46c-45,46-63,83-90,189c-52,198-20,380,74,434c41,23,66,29,172,42c28,3,57,7,65,9
		s35,7,60,10s56,8,70,10s45,7,70,10c46,6,60,8,140,20c75,11,93,14,140,20c25,3,56,8,70,10s77,11,140,20s126,18,139,20s45,7,70,11
		c59,8,74,10,201,28c58,9,125,18,149,21c23,3,55,7,70,10c65,11,90,14,146,21c33,3,62,8,65,9c3,2,33,6,65,10c33,3,67,8,75,10
		s38,7,65,10c28,3,62,8,77,11s41,7,58,9c34,5,101,14,140,20c14,2,45,6,70,10c25,3,56,8,70,10s45,7,70,10c25,4,56,8,70,10
		c31,5,108,16,135,20c11,1,58,8,105,14c47,7,101,14,120,17s46,7,60,9c31,6,83,13,133,20c179,21,427,145,427,212c0,41-65,75-195,102
		c-48,10-258,9-300-2c-24-6-81-14-150-23c-27-3-59-8-70-9c-208-31-253-38-370-55c-33-5-82-12-110-15c-27-3-61-8-75-10
		c-14-3-43-7-65-10s-51-8-65-10c-14-3-47-7-75-10c-27-4-75-10-105-15s-75-12-100-15s-56-8-70-10c-14-3-47-7-75-10c-27-3-57-8-65-10
		s-37-7-65-10c-27-3-61-7-75-10c-14-2-45-7-70-10s-52-8-60-10s-42-7-75-10c-32-4-62-8-65-10c-3-1-36-6-75-10c-38-4-72-8-75-10
		s-34-6-70-10s-67-8-70-10s-34-6-70-10s-67-8-70-10s-29-6-59-10s-61-8-70-10c-9-1-43-6-76-9c-33-4-67-9-75-11c-17-4-59-11-135-20
		c-55-7-218-31-280-41c-76-12-110-11-145,3c-107,44-174,198-179,411c-1,49,3,109,9,135c21,81,91,142,184,162c15,3,37,7,51,10
		c13,3,36,10,50,15s25,8,25,5c0-2,15,1,33,6c17,6,39,12,47,14c36,9,146,36,160,40c37,9,267,66,280,70c8,1,166,40,350,85
		s342,83,350,85c21,5,102,25,120,30c56,15,1017,239,1140,265c47,10,119,26,160,35c89,20,87,19,219,46c57,11,116,23,130,25
		c14,3,73,14,131,25s134,22,170,26c36,3,66,6,68,8C28773,19199,29093,19191,29115,19187z M7034,15731c72-45,120-149,143-306
		c11-75,7-187-7-231c-33-100-82-135-215-154c-44-6-91-13-105-15s-47-7-75-10c-27-3-61-8-75-10c-14-3-43-7-65-11c-22-3-51-7-65-9
		s-45-6-70-10c-25-3-56-8-70-10s-45-7-70-10c-25-4-90-13-145-21s-118-17-140-20s-114-16-205-30c-91-13-178-26-195-29
		c-16-2-52-7-80-11c-27-3-59-8-70-10s-42-6-70-10c-27-3-90-11-140-19c-105-16-142-22-210-31c-27-3-52-7-55-9s-34-6-70-10
		s-72-9-81-10c-9-2-40-6-69-10s-61-8-72-10c-10-2-69-11-131-20c-62-8-121-17-133-19s-45-7-75-11c-30-3-112-15-184-26
		c-71-11-154-22-184-25c-203-19-471-146-471-223c0-63,169-113,365-106c55,2,111,6,125,9c14,2,61,10,105,16c103,15,134,19,165,25
		c14,2,50,7,80,10s62,8,70,10s40,7,70,10s62,8,70,10s39,7,69,10c30,4,61,8,70,10c29,5,96,15,216,31c28,3,57,7,65,9
		c15,3,143,21,210,31c33,4,58,8,125,19c17,3,50,7,75,10s59,7,75,10c69,10,98,14,138,20c54,7,117,16,141,21c10,2,44,6,75,9
		c31,4,63,8,71,10s38,7,65,10c28,4,57,8,65,10c8,3,40,7,70,10s62,8,70,10s40,7,70,10s62,8,70,10s40,7,70,10s62,8,70,10s40,7,70,10
		s62,8,70,10s38,7,65,10c28,3,79,10,115,16c36,5,76,12,90,14s44,6,67,10c81,13,119,13,157,0c117-41,188-211,183-440
		c-2-90-7-117-24-151c-27-52-73-90-121-104c-64-17-126-33-142-36c-8-1-152-37-320-79c-330-82-746-185-770-190c-8-2-35-8-60-15
		s-53-14-62-15c-10-2-73-17-140-34c-344-84-425-103-443-106c-11-1-78-17-150-34c-178-44-522-122-593-135c-12-3-30-7-40-10
		c-9-3-28-7-42-10s-36-7-50-10s-47-10-75-16c-27-6-59-12-70-14c-26-6-211-43-250-51c-178-35-284-48-425-50c-168-2-278,9-485,50
		c-205,40-500,148-688,252c-399,220-606,471-582,709c8,88,60,228,118,318c36,57,104,155,127,181c254,298,594,545,954,695
		c101,42,298,103,371,114c56,9,171,24,230,30c201,21,245,25,335,31c41,3,107,7,145,10c39,3,104,8,145,10c41,3,102,7,135,10
		c97,7,341,21,515,30c81,4,201,11,375,20c44,2,139,7,210,10c72,3,162,8,200,10c39,2,135,7,215,10s188,7,240,10c132,6,310,14,475,20
		c76,3,140,7,141,8s62,2,136,2C6985,15755,6998,15753,7034,15731z M25845,15745c55-2,165-7,245-10c322-14,576-25,675-30
		c39-2,129-6,200-10c180-8,293-14,410-20c55-3,138-8,185-10s121-7,165-10s125-7,180-10s123-8,150-10c28-2,95-7,150-10s123-8,150-10
		c28-3,86-7,130-10c206-15,301-25,465-46c299-38,602-159,910-364c69-46,139-96,157-112c17-15,56-47,85-70c61-48,224-213,284-288
		c146-181,231-361,239-512c13-229-201-479-591-691c-203-110-526-224-729-258c-11-1-47-7-80-13c-33-5-85-13-115-17
		c-79-10-325-11-390-2c-30,4-77,10-105,13c-27,4-66,10-85,15s-53,11-75,14s-96,17-165,31c-69,15-136,29-150,31c-14,3-53,11-86,19
		c-34,8-73,16-85,19c-13,2-107,23-209,46s-212,48-245,55s-107,25-165,38c-58,14-193,47-300,72c-339,80-433,103-768,186
		c-180,44-334,82-342,84c-122,26-722,181-742,191c-42,21-86,82-99,138c-36,148,13,392,98,486c61,68,93,74,263,50
		c206-29,213-30,240-35c14-3,48-7,75-10c28-3,61-8,75-10c31-6,64-11,165-25c44-6,91-13,105-15s41-6,60-9c19-2,69-9,110-15
		c41-7,89-13,105-15c17-2,46-7,65-10s51-8,70-10c30-4,328-46,430-61c19-3,46-7,60-10c14-2,45-7,70-10c25-2,59-7,75-10
		c61-10,91-15,150-21c33-3,62-7,65-9s30-6,60-10c30-3,62-8,70-10s40-7,70-10s62-8,70-10s56-9,105-16c121-15,129-16,177-24
		c24-4,54-8,68-10s41-6,60-9s82-12,140-20c58-9,128-19,155-23c60-9,234-9,290-1c97,15,175,50,195,88c9,17,4,26-33,63
		c-78,77-242,142-422,167c-99,14-133,19-165,25c-14,2-47,7-75,10c-27,3-75,10-105,15s-77,12-105,15c-27,4-90,12-140,20
		c-49,7-114,17-144,20c-30,4-63,9-75,11c-27,5-136,21-201,29c-27,3-61,8-75,10c-14,3-43,7-65,10s-51,8-65,10c-14,3-47,7-75,10
		c-27,3-61,8-75,10c-14,3-43,7-65,10s-51,8-65,10c-14,3-47,7-75,11c-27,3-57,8-66,9c-9,2-40,6-69,10s-62,9-74,11s-41,7-66,10
		s-56,7-70,9c-51,8-246,37-265,40c-11,1-47,6-80,10s-69,9-80,11s-40,6-65,9s-56,8-70,10c-14,3-43,7-65,10s-51,8-65,10
		c-14,3-47,7-75,11c-52,6-83,10-125,18c-14,3-47,8-75,11c-27,4-65,8-83,11c-166,21-219,165-166,454c19,109,82,211,147,241
		C25447,15761,25470,15761,25845,15745z M25381,13029c400-136,624-213,869-297c80-28,198-69,264-92c572-197,1220-434,1535-560
		c199-80,272-113,371-171c127-74,112-64,235-160c418-327,774-873,831-1278c7-48,8-185,1-211c-15-60-23-80-44-118
		c-39-72-74-110-154-171c-89-68-290-166-379-186c-8-2-49-12-90-23c-221-59-403-80-670-76c-96,1-195,5-220,8c-284,42-393,69-565,138
		c-84,34-509,249-550,278c-5,4-55,31-110,60c-55,30-152,83-215,118c-63,36-133,74-155,86s-60,34-85,48s-187,107-360,206
		c-173,98-355,202-404,231c-49,28-90,51-91,51s-42,24-91,53s-96,56-104,60c-8,5-24,13-35,20s-58,35-105,62c-47,28-92,55-101,60
		c-9,6-56,33-104,60c-47,28-94,55-104,60c-9,6-66,39-126,74c-444,261-409,237-437,299c-33,73-25,154,29,292c90,227,231,327,368,262
		c41-20,159-74,680-312c160-73,328-150,373-171c46-22,85-39,87-39s43-19,92-41c48-23,115-54,148-69c69-32,647-295,900-410
		c94-43,199-91,235-108c348-163,442-193,595-189c90,3,125,17,125,50c0,31-48,103-101,153c-96,90-156,125-404,238
		c-66,30-149,67-185,84c-36,16-117,53-180,82s-142,65-175,80c-145,66-285,130-340,155c-33,15-87,40-120,55c-60,28-77,36-295,135
		c-190,86-207,94-408,186c-106,49-286,131-400,183c-583,264-570,257-599,325c-32,74-11,203,53,333c77,158,142,221,249,240
		C24943,13178,24955,13174,25381,13029z M7591,13141c62-40,91-74,142-171c51-96,73-156,85-233c11-67-7-149-39-184
		c-23-25-124-76-334-170c-55-24-127-57-160-73c-79-37-188-87-250-115c-313-142-759-346-834-381c-51-24-95-44-96-44
		c-4,0-45-19-210-95c-44-20-179-82-300-137s-247-113-280-128c-128-59-204-95-319-147c-66-30-150-74-187-98c-90-60-196-174-204-219
		c-9-45-3-53,48-67c39-10,183-7,218,6c8,2,25,6,39,9c38,6,118,35,190,68c36,17,108,49,160,73s129,59,170,78s176,81,300,137
		c124,57,259,118,300,137s192,88,335,153s375,171,515,235s269,123,285,130c17,7,74,34,129,59c54,25,100,46,102,46c1,0,42,19,91,42
		c48,23,90,43,93,43c11,3,60,25,160,73c58,27,117,53,129,57c74,23,159-10,225-86c79-93,156-284,156-388c-1-98-37-152-145-211
		c-52-29-126-71-352-205c-103-60-207-122-232-136c-25-15-100-58-166-96c-574-333-1095-631-1310-751c-49-27-106-58-125-69
		s-62-35-95-53s-82-45-110-60c-201-113-583-307-687-348c-69-28-228-76-291-87c-12-3-44-9-72-14c-128-25-253-35-435-36
		c-243,0-331,10-618,71c-68,14-249,81-327,120c-289,147-389,315-352,597c17,128,100,366,164,469c13,21,23,40,23,42
		c0,11,93,160,148,237c243,343,548,610,863,758c157,73,750,301,1114,428c55,19,109,38,120,43c27,11,220,80,253,90c15,4,92,31,172,60
		c80,28,177,62,215,75c39,13,176,60,305,105c423,147,465,161,480,165c32,8,634,216,639,220c2,3,30,5,61,5
		C7535,13170,7555,13164,7591,13141z M8993,10683c35-12,47-21,48-37c0-12,2-30,4-41s9-47,14-80c11-61,17-90,26-135c3-14,8-43,11-65
		s8-43,10-47c3-4-10-20-27-35c-18-15-40-35-49-43c-8-8-79-69-155-135c-77-65-153-131-170-146c-16-15-86-76-155-135s-127-110-130-113
		c-3-4-66-58-140-121c-123-105-186-160-230-200c-9-8-43-37-75-65c-33-27-62-52-65-56c-5-6-42-38-155-134c-32-27-82-70-110-95
		c-29-25-81-70-116-101s-201-175-369-320s-319-277-337-294c-31-30-56-71-225-370c-15-27-28-53-28-56c0-4,71,21,158,56
		c163,64,194,76,202,77c26,2,109,61,225,161c77,66,145,125,150,131c6,6,55,49,110,96s105,89,111,95c14,13,35,31,219,190
		c83,72,164,142,180,156c54,47,211,183,241,209c60,51,270,234,304,263c19,17,84,74,145,126c60,52,112,97,115,100s32,29,65,56
		c33,28,67,57,75,65c9,8,97,85,196,170c98,85,190,165,204,178c14,12,34,25,45,28c11,2,103-24,204-58l185-63l28-140
		c41-207,49-264,41-279c-5-8-72-81-149-162c-78-82-156-165-174-184c-28-31-87-92-342-362c-29-31-118-124-198-208s-169-177-198-208
		c-185-196-524-543-822-842c-467-468-546-541-699-643c-47-31-91-62-98-67c-25-20-283-139-376-174c-55-20-159-52-234-72
		c-141-37-142-37-213-49c-25-4-54-9-65-11s-47-7-80-10s-71-8-85-10c-36-6-310-6-340,1c-14,3-47,7-75,10c-78,9-193,43-271,80
		c-141,68-226,187-259,360c-14,79-17,104-17,193c-1,121,15,269,43,392c6,25,13,54,15,66s17,63,33,115c115,374,314,725,548,965
		c123,126,457,388,1029,806c113,83,412,299,451,326c10,7,117,83,238,170c233,166,378,269,750,531c127,89,237,167,246,174
		c8,7,22,17,31,22c75,49,159,108,163,115c3,5,76-16,163-46C8874,10724,8966,10692,8993,10683z M23895,10728c50-35,119-85,155-109
		c63-44,405-285,445-313c11-8,229-164,485-347c256-182,479-341,495-353c17-12,55-39,85-62c30-22,95-69,144-105
		c449-327,856-642,966-750c255-250,467-619,584-1016c19-65,37-129,40-143s8-36,11-50c31-139,47-399,30-495c-19-109-31-148-62-214
		c-44-93-112-160-208-206c-73-34-193-70-269-80c-23-3-57-8-76-10c-45-6-307-7-340-1c-14,2-52,7-85,11c-358,39-767,182-1045,364
		c-71,47-155,113-260,205c-53,48-798,794-960,962c-140,145-463,483-525,548c-16,18-100,106-187,197c-86,90-173,182-195,205
		c-149,159-311,331-386,408c-48,50-89,100-92,111s11,108,32,215l39,195l184,63c102,34,194,60,205,57c11-2,36-19,55-37s82-73,140-123
		c58-49,107-92,110-95s68-59,145-125s142-122,145-126c5-6,296-256,318-274c7-5,21-17,30-26c15-14,147-128,327-283c32-28,66-58,75-66
		s79-69,155-135c77-65,142-122,145-125s55-48,115-100c61-52,124-107,140-121c17-15,115-101,219-191l190-163l218-86
		c120-48,218-84,218-81c0,2-13,28-29,56s-36,62-43,76s-45,80-83,148l-69,124l-226,195c-124,107-236,205-250,217
		c-14,11-92,80-175,151c-82,72-163,141-179,155s-37,32-46,40s-61,54-115,101c-55,47-226,195-380,328c-154,134-291,253-305,265
		c-87,74-246,212-250,216c-3,3-86,75-185,160s-185,159-191,164c-6,6-7,26-2,55c4,25,10,64,13,86c4,22,10,56,15,75c4,19,14,72,21,117
		l12,81l121,43c234,82,281,96,291,89C23801,10796,23846,10764,23895,10728z M10823,8875c58-4,75-9,110-37c127-98,180-192,156-280
		c-8-31-176-299-484-773c-39-60-109-170-156-242c-46-73-105-165-131-205c-25-40-65-102-88-138c-22-36-63-99-90-140s-83-129-125-195
		s-138-217-215-335c-76-118-168-260-203-315c-197-305-192-295-232-503c-2-13-7-32-10-42s-8-27-10-37s-10-47-19-83c-8-35-13-66-11-68
		c4-4,81,52,95,68c3,3,23,19,45,36c22,16,82,62,134,102l95,74l238,371c130,205,241,377,245,382c5,6,33,48,62,95c30,47,74,114,97,150
		s76,119,118,185s81,127,87,136c28,40,451,698,469,729c12,19,47,76,80,125c60,91,116,178,219,340c65,102,109,135,183,137
		c59,1,152-27,214-64c49-29,54-37,147-217l95-186l-154-305c-160-315-380-746-489-955c-34-66-106-205-160-310
		c-54-104-105-203-115-220c-10-16-48-88-85-160c-90-173-182-345-280-525c-29-52-67-122-85-155c-284-519-410-686-685-910
		c-266-216-676-424-945-480c-8-2-35-8-60-13c-103-23-286-32-368-17c-194,34-326,167-407,410c-15,44-28,86-30,95c-2,8-8,33-13,55
		c-6,22-14,63-18,90c-3,28-8,53-10,56c-6,10-17,221-17,319c0,86,10,256,17,298c2,9,7,40,10,67c17,120,44,243,80,364
		c26,83,112,307,127,326c4,6,22,37,40,70c39,71,147,230,277,409c104,142,423,568,432,576c5,4,181,234,212,275c4,6,20,26,36,45
		c48,60,306,390,328,420c11,16,34,46,52,67c17,21,88,110,157,198s131,167,138,175c142,178,287,361,345,433c95,119,89,112,147,186
		l50,63l145-6C10690,8882,10786,8877,10823,8875z M22175,8614c432-544,598-755,785-994c80-102,150-192,157-200s78-100,158-205
		c81-104,154-199,163-210s35-45,57-75c21-30,42-57,45-60c6-5,332-443,387-520c150-209,238-359,301-510c30-74,97-285,106-337
		c3-14,10-49,16-77c17-83,19-96,29-175c17-130,23-221,23-361s-5-208-28-355c-17-106-62-250-109-348c-125-262-326-343-700-282
		c-215,35-567,182-810,339c-276,178-504,401-658,643c-43,66-234,398-250,433c-4,8-11,22-17,30c-5,8-34,60-63,115
		c-91,168-128,238-157,290c-15,28-54,102-87,165c-117,223-171,326-215,410c-86,162-301,581-558,1085c-67,132-132,260-145,285
		s-26,52-29,60s-26,53-51,100l-44,85l59,115c129,253,133,261,189,291c104,58,220,76,281,44c49-25,57-35,165-205
		c54-85,131-204,170-265c103-158,747-1161,765-1190c21-34,212-331,286-445c34-52,124-193,201-312l139-217l182-141
		c99-77,183-140,185-140c5,0,3,11-49,230c-20,85-38,165-40,177c-8,41-22,67-106,195c-46,70-118,183-161,250c-43,68-102,159-130,203
		s-163,253-299,465c-135,212-250,390-255,395c-4,6-15,22-23,36c-25,43-334,524-340,529c-3,3-12,17-20,31s-91,145-185,290
		c-166,260-169,265-169,319c0,76,55,160,151,231c53,40,55,40,161,46c59,3,108,6,109,7s48,3,105,4l103,3L22175,8614z M13165,7669
		c174-51,280-136,288-230c4-42-1-60-126-484c-36-121-81-274-100-340c-20-66-48-160-62-210c-15-49-38-128-51-175c-14-47-27-92-29-100
		c-3-8-11-37-19-65c-8-27-85-288-171-580c-86-291-165-559-175-595s-48-165-84-287c-75-258-75-259-81-379c-5-112,10-207,39-241
		c18-21,25-23,49-14c77,30,187,192,240,356c23,71,208,696,367,1240c32,110,86,295,120,410c34,116,63,217,65,225s43,146,90,305
		c47,160,95,322,106,360c12,39,25,84,30,100c55,188,70,238,84,288c20,70,59,118,114,139c139,55,456-35,544-155c49-66,52-101,19-267
		c-25-122-29-146-42-220c-6-30-12-66-15-80s-12-63-21-110c-8-47-24-130-35-185s-22-113-24-130c-3-16-8-41-10-55c-7-34-12-59-35-180
		c-11-58-22-116-25-130s-8-38-10-55c-3-16-33-169-66-340c-34-170-63-320-65-332c-2-13-6-33-9-45c-15-72-56-277-60-300
		c-3-14-16-77-29-140c-14-62-34-158-46-214c-28-138-25-121-65-299c-20-88-40-176-45-195s-11-46-14-60c-10-56-58-230-87-314
		c-34-99-144-331-169-356c-3-3-14-21-24-40c-101-181-393-502-601-661c-341-260-661-363-856-276c-204,91-390,353-511,722
		c-16,50-31,97-33,105c-54,218-77,344-90,500c-6,69-7,368-1,395c2,11,7,47,11,80c12,108,43,236,90,380c120,358,349,960,687,1805
		c105,261,199,498,210,525c10,28,25,64,32,80c13,27,140,340,253,620c71,177,100,210,201,230C12982,7708,13062,7700,13165,7669z
		 M19570,7675c63-33,51-9,327-690c69-170,131-323,138-340c8-16,46-111,85-210s75-189,80-200c18-38,257-650,364-930
		c59-154,111-289,116-300c9-21,118-319,151-415c75-214,123-389,144-525c4-22,8-137,10-255c4-265-10-395-76-667c-17-73-76-256-98-308
		c-129-296-275-489-425-563c-84-42-120-50-212-47c-491,16-1216,673-1459,1322c-38,99-141,493-170,644c-4,20-25,119-30,139
		c-7,29-15,70-19,90c-6,37-45,219-56,265c-6,22-12,51-14,65s-30,151-61,305s-59,291-61,305c-3,14-14,72-25,130s-23,116-25,130
		c-21,112-47,244-56,290c-6,30-12,62-13,70s-5,29-9,45c-8,37-13,64-26,140c-6,33-17,92-25,130c-19,95-24,124-31,165c-3,19-7,42-9,50
		s-7,31-10,50s-10,58-15,85c-14,69-16,79-51,265c-17,91-33,183-34,205c-7,108,83,194,266,256c200,67,365,42,413-64
		c8-17,33-97,56-177c22-80,45-156,50-170s45-151,90-305s92-316,105-360c22-73,82-276,122-415c8-30,22-75,30-100s16-52,18-60
		s38-132,80-275s97-330,121-415c25-85,49-166,54-180s43-144,85-290c84-290,133-407,213-505c54-67,114-104,137-85
		c31,25,49,100,49,204c0,159,4,144-176,751c-27,94-54,184-58,200c-5,17-31,107-58,200c-80,270-145,490-273,930
		c-66,226-126,430-134,455s-42,140-76,255c-33,116-70,239-81,275s-21,73-24,83c-13,52-15,65-18,94c-14,129,187,255,454,286
		C19455,7707,19539,7691,19570,7675z M15895,7129c78-27,140-82,149-132c3-17,6-741,7-1607c1-1668,0-1647,47-1781
		c65-186,131-207,196-64c77,168,74,87,74,1860c0,1470,1,1584,17,1615c50,97,166,140,364,135c210-5,318-68,335-196c3-19,8-65,11-104
		c4-38,8-81,10-95s6-61,10-105s8-87,10-95s6-53,10-100s8-92,10-100s6-53,10-100s8-92,10-100s6-51,9-95c4-44,9-93,11-110
		c3-16,7-57,10-90c7-86,15-164,20-210c2-22,7-76,11-120c3-44,8-87,9-96c2-8,6-55,10-105c4-49,8-100,10-114c3-14,7-54,10-90
		c8-102,14-171,20-230c2-30,7-86,10-125c3-38,8-90,10-115c3-25,7-79,10-120s8-93,10-115s7-83,10-135c4-52,8-115,10-140s7-90,11-145
		c3-55,8-120,10-145c9-120,11-513,3-570c-5-36-12-83-15-105c-9-66-62-267-95-361c-168-484-501-939-809-1106c-167-90-317-89-490,5
		c-234,127-491,433-676,807c-113,229-173,409-219,660c-21,115-23,146-19,380c4,252,6,283,18,450c4,47,9,117,12,155c2,39,7,95,9,125
		c6,70,13,155,20,250c3,41,8,98,10,125c7,70,13,148,20,230c3,39,7,88,10,110c2,22,7,72,10,110c3,39,8,91,10,118
		c12,115,15,146,20,202c3,33,8,85,10,115c3,30,8,78,10,105c3,28,7,73,10,100c9,78,14,129,30,305c15,162,25,258,31,299
		c2,19,7,67,9,105c3,39,7,80,9,91s7,54,11,95c3,41,8,86,10,100s7,61,10,105c8,104,21,153,51,192s115,82,180,89c27,4,51,8,53,10
		s53,2,112,0C15801,7154,15845,7147,15895,7129z"/>
    <path d="M15869,23926c-2-3-62-7-134-11c-71-3-143-8-160-9c-16-2-64-7-105-10c-41-4-88-9-105-11c-16-2-57-6-90-10s-71-8-85-10
		c-14-3-42-7-62-10c-21-3-55-7-75-10c-41-6-64-10-158-26c-107-18-408-79-470-95c-33-9-68-17-77-19s-61-15-115-30s-105-28-113-30
		s-69-20-135-40c-867-261-1677-671-2400-1213c-200-150-409-322-540-443c-320-296-534-518-768-799c-667-800-1163-1722-1466-2725
		c-50-165-138-519-167-669c-2-11-10-55-19-96c-8-41-17-91-20-110s-10-60-15-90c-12-75-19-121-31-210c-5-41-12-93-15-115
		c-7-47-9-71-19-185c-3-47-8-95-10-107c-20-125-28-883-12-1103c18-245,29-365,42-460c2-14,7-50,10-80s8-62,10-70s7-40,10-70
		s8-62,10-70s7-35,10-60c10-70,42-238,59-313c9-37,18-79,21-95c4-22,31-131,89-362c36-141,190-611,231-705c7-16,29-72,49-123
		c208-534,562-1173,922-1664c88-120,253-332,309-397c206-240,230-266,415-456c149-153,328-322,460-436c47-40,87-75,90-78
		s50-42,105-87c530-428,1129-795,1725-1058c47-21,104-46,128-57c96-44,409-161,582-218c287-96,669-196,930-245c47-9,96-18,110-21
		c56-11,198-35,240-40c25-3,56-7,70-10c14-2,43-7,65-9c22-3,63-8,91-11c28-4,68-8,90-10c84-7,177-16,206-20c203-26,1120-26,1258,0
		c8,1,53,6,100,10s92,9,100,10c8,2,49,6,90,10s82,8,90,10c8,1,40,6,70,10s64,9,75,11c11,3,38,7,60,10c39,5,178,29,221,38
		c12,2,39,7,60,10c22,4,55,11,74,16s50,12,67,15c18,3,89,19,158,35c330,78,695,193,1000,313c72,28,132,52,135,53c3,0,17,6,33,12
		c15,7,38,16,52,22c67,26,374,171,495,233c144,74,187,97,344,186c100,57,260,157,411,257c470,311,867,641,1274,1058
		c134,137,123,126,221,236c41,47,77,87,80,90s41,48,84,100s88,106,100,120c85,99,406,549,503,705c65,104,172,283,189,313
		c152,277,305,584,374,752c12,30,28,69,35,85c202,471,409,1179,479,1639c4,21,9,48,11,60c3,12,7,37,9,56s13,98,25,175
		c11,77,23,172,26,210c3,39,8,86,10,105c23,214,30,371,30,725c0,306-4,439-20,625c-9,113-16,188-20,220c-6,47-14,118-20,160
		c-3,19-7,55-10,80c-4,25-8,56-10,70s-11,70-20,125c-13,85-66,354-82,420c-2,11-8,38-13,61c-12,54-59,242-70,279c-6,17-19,64-31,105
		c-34,125-121,394-130,405c-5,5-9,17-9,27c0,9-7,32-15,50s-26,65-40,103c-40,106-124,312-156,383c-16,34-29,65-29,67
		c0,19-211,436-315,620c-28,51-154,264-171,290c-226,343-313,467-479,680c-80,102-72,92-233,280c-332,385-701,738-1076,1028
		c-56,43-110,86-121,95c-40,33-243,177-375,265c-120,80-455,287-465,287c-2,0-28,14-57,32c-29,17-138,75-243,128
		c-644,330-1328,564-2055,705c-14,3-41,7-60,11c-19,3-55,9-80,14s-63,12-85,15s-53,7-70,10c-16,2-52,7-79,10s-52,8-55,9
		c-3,2-38,6-76,10c-39,4-81,8-95,10c-29,5-111,13-220,21c-41,3-102,8-135,11C16636,23922,15874,23931,15869,23926z M14336,22886
		c187-13,390-82,557-189c317-204,626-625,793-1084c41-113,114-378,129-466c3-18,10-59,16-92s13-76,15-95s5-44,8-55c2-11,7-47,10-80
		c4-33,9-80,11-105c29-271,24-799-10-1055c-3-22-8-60-11-85c-28-222-76-448-128-605c-44-131-58-159-119-248c-12-18-225-163-230-156
		c-7,10-33,76-113,287c-47,125-101,265-119,312s-110,288-204,535c-93,248-176,464-182,480c-7,17-13,32-14,35s-5,12-8,20
		s-16,41-27,73c-12,31-24,57-26,57c-3,0-19-7-35-16c-22-11-29-20-24-32c4-9,110-289,237-622c126-333,233-614,239-625
		c5-11,54-139,109-285l99-265l-182-90c-100-50-215-112-255-138s-78-48-83-50c-5-1-70,81-144,183c-73,102-138,190-142,195
		c-5,6-38,51-73,100c-36,50-69,95-73,100c-4,6-47,64-95,130s-96,132-107,147c-11,14-27,36-35,48s-42,59-75,104
		c-33,46-215,297-405,559s-347,476-350,477c-3,0-17-10-32-23l-28-22l321-440c176-242,370-510,432-595c61-85,138-191,171-236
		c34-45,88-120,122-165c356-491,431-596,437-605c4-7-20-32-56-60c-34-26-132-119-217-205l-155-158l-100,82c-56,45-118,96-139,112
		c-21,17-44,35-50,40c-6,6-31,26-56,45s-47,37-50,40c-3,4-84,69-180,146c-96,76-177,141-180,144s-27,24-55,45c-27,22-59,48-70,57
		s-157,127-325,262l-305,245l-27-26c-15-15-27-27-25-29c1-1,126-101,277-223s282-227,290-234s130-104,270-217s264-212,275-222
		c11-9,63-51,115-93c52-41,102-81,110-88s48-39,88-71c39-32,72-61,72-65c0-9-167-143-199-161c-58-31-146-44-301-44
		c-92,0-269,10-320,18c-14,3-47,8-75,11c-85,12-89,13-125,19c-60,10-91,16-210,42c-63,14-123,27-133,29s-27,7-37,10s-27,7-37,9
		c-98,19-456,135-630,205c-164,65-406,180-518,245c-33,20-67,39-75,43c-8,3-53,31-100,61c-358,230-661,540-853,874
		c-79,138-148,308-171,423c-4,17-9,41-11,55c-23,111-23,306,0,420c2,14,7,39,11,55c6,34,54,192,64,215c53,118,143,288,192,362
		c170,261,426,540,768,839c139,121,521,416,720,557c52,37,299,202,380,254c276,178,638,367,885,460c80,30,217,77,245,83
		c8,2,51,12,95,24c44,11,103,23,130,27c28,3,53,8,56,10c4,2,44,7,90,10c46,4,85,8,87,9C14150,22897,14226,22893,14336,22886z
		 M18445,22877c11-3,40-8,65-12s81-16,125-27s88-21,97-23s66-20,125-41c384-132,826-370,1328-719c98-68,395-284,405-295
		c3-3,34-27,70-55c89-68,138-108,324-270c591-513,930-994,1007-1430c5-33,12-71,15-85c5-33,5-245-1-290c-47-344-250-705-590-1045
		c-77-78-189-178-250-223c-60-45-115-86-122-92c-7-5-15-10-18-10s-27-15-53-33c-138-97-439-250-692-352c-128-52-432-157-490-170
		c-8-2-64-17-125-33c-60-17-137-36-170-43s-62-13-65-14c-27-6-70-15-90-19c-14-3-47-9-75-15c-27-5-88-15-135-21s-96-13-110-16
		c-44-7-211-17-315-17c-188-1-293,20-350,72c-16,15-60,51-97,80l-68,52l77,62c42,34,91,73,109,87c27,21,387,310,449,362
		c35,28,151,122,190,153c69,54,569,457,627,505l57,47l-27,26l-27,26l-150-120c-82-66-168-135-190-153c-50-42-76-62-485-391
		c-184-148-371-299-416-335c-44-36-100-81-124-100s-66-54-94-77l-51-42l-150,152c-82,84-180,177-217,206c-76,59-75,48-8,141
		c23,30,55,75,72,100s35,47,38,50c4,3,24,30,46,61c56,80,175,245,274,379c47,63,96,132,110,152s72,101,130,180
		c58,78,113,154,122,168s60,84,112,155c53,72,102,139,110,150s63,85,121,165s117,161,130,180c12,19,55,78,93,130l70,95l-26,22
		c-15,12-29,22-32,22s-95-124-205-276c-110-151-246-339-303-417c-226-311-268-369-287-396c-11-15-47-65-80-110s-69-95-80-110
		c-11-16-119-165-240-331s-233-320-248-343c-49-70-47-70-104-31c-75,51-110,70-298,163c-93,46-171,85-173,87c-2,1,9,31,23,66
		c15,35,28,71,30,79s17,49,33,90c17,41,44,111,60,155c71,190,174,462,183,480c11,25,278,726,324,852l34,93l-30,16c-17,8-33,13-35,11
		c-5-5-69-168-113-287c-45-123-122-324-131-345c-5-11-39-99-75-195c-37-96-83-218-103-270s-37-97-38-100c0-3-4-12-7-20
		c-4-8-54-141-113-295c-58-154-107-282-109-284c-7-6-189,114-222,147c-40,39-80,117-121,232c-30,85-85,301-96,374c-4,21-8,41-10,45
		c-2,3-6,29-10,56c-10,80-16,128-21,155c-3,14-7,57-11,95c-3,39-8,79-10,90c-24,126-24,763,1,955c2,19,6,65,9,101
		c11,132,59,383,107,559c65,242,137,418,252,620c320,559,717,856,1187,886c52,4,96,7,97,8C18200,22896,18425,22881,18445,22877z
		 M16460,18116c19-3,46-8,60-11s51-10,82-15c31-6,99-23,150-39c444-133,816-411,1069-798c101-154,224-437,254-584
		c45-215,50-263,49-479c0-157-4-206-27-325c-33-178-82-326-162-491c-104-215-259-424-422-571c-42-37-81-73-87-78c-6-6-42-33-81-61
		c-268-196-583-321-910-362c-78-9-373-9-450,1c-218,27-407,83-603,177c-454,218-799,597-975,1070c-85,229-112,391-112,670
		c0,211,6,263,50,445c80,338,254,645,510,901c169,169,348,294,563,393c170,77,403,142,566,158c34,3,63,7,65,10
		C16056,18132,16418,18123,16460,18116z M11225,17376c55-3,111-8,125-11c14-2,48-7,75-10c91-12,105-14,223-35
		c617-109,1376-415,1787-720c164-121,201-171,240-315c38-140,38-144,18-143c-10,0-81-3-158-6c-77-4-176-9-220-11s-132-6-195-10
		c-63-3-160-8-215-11c-55-2-131-6-170-9c-38-2-133-7-210-10c-77-4-170-8-208-10c-37-2-129-7-205-11c-75-3-157-7-182-9
		c-25-1-69-3-99-4l-53-1l6-32c8-39,17-46,64-42c20,1,98,5,172,9c145,7,236,11,395,20c111,6,230,12,410,20c66,3,152,8,190,10
		c39,2,129,6,200,10c72,3,166,8,210,10c44,3,130,7,192,10l111,6l6-28c7-36,13-75,21-142c4-30,8-61,10-70c1-9,6-38,9-66
		c9-64,42-214,56-249c5-15,10-29,10-31c0-4-161-57-770-255c-675-219-1057-343-1185-385c-71-24-203-67-293-95c-162-52-163-53-157-79
		c10-42,21-46,72-29c27,10,197,65,378,124c182,58,395,128,475,154s208,68,285,93c253,82,826,268,1015,329c102,33,189,61,193,62
		c5,0,20-28,34-64c24-62,109-237,195-399l38-74l-72-48c-40-26-174-114-298-195c-307-201-362-237-382-249c-28-16-582-379-593-387
		c-5-5-66-45-135-89c-69-45-129-85-133-89c-13-12,21-72,36-64c17,11,254,165,372,243c55,36,104,68,110,71c5,3,83,54,173,113
		s209,138,265,174s165,107,242,158c384,252,436,285,443,285c8,0,90-221,96-260c10-64-38-252-108-428c-253-628-792-1370-1297-1782
		c-252-206-459-329-734-435c-537-208-946-200-1340,27c-253,145-534,467-755,863c-126,225-311,641-405,910c-9,28-21,59-26,70
		c-42,98-237,736-269,880c-5,22-14,60-20,85c-15,58-48,210-60,275c-5,28-11,61-14,75c-12,66-36,221-41,270c-3,30-8,75-11,100
		c-20,174-19,473,1,610c27,179,51,274,100,402c177,457,588,750,1240,883c142,29,169,33,297,41c56,3,104,7,105,8
		C10911,17388,11133,17382,11225,17376z M21626,17376c51-4,100-8,110-10c11-2,41-7,67-10c27-4,56-9,65-11c345-71,611-172,813-307
		c47-31,118-87,158-124c69-64,191-204,191-220c0-4,6-15,14-23c27-31,106-200,137-292c27-84,55-205,74-324c13-79,13-499,0-615
		c-19-169-22-192-49-350c-54-316-153-690-295-1120c-84-250-192-544-245-664c-289-651-521-1004-832-1266c-133-112-370-238-497-264
		c-7-2-23-6-37-9c-112-29-296-39-445-24c-216,23-534,122-775,243c-163,81-430,266-580,400c-185,166-450,452-555,598
		c-11,16-25,33-30,40c-26,28-170,232-237,336c-283,435-496,918-500,1133c-1,51,6,83,43,180c24,64,47,117,51,117s53-31,110-68
		c93-62,163-108,209-137c9-5,29-19,45-30c16-10,79-51,139-90c220-143,561-366,920-602c211-138,191-129,210-94c8,17,15,32,15,35
		c0,2-37,28-82,57c-46,29-168,109-273,177c-402,264-489,321-760,497c-143,94-500,327-503,330c-4,4,23,60,60,125
		c75,134,115,217,188,397l10,23l52-19c29-11,208-70,398-131c433-140,989-321,1140-370c478-157,799-260,809-260c11,0,31,40,31,60
		c0,5-10,12-22,15c-13,4-203,65-423,137c-220,71-483,157-585,190c-102,32-279,90-395,128c-115,38-385,125-598,195
		c-333,108-388,129-382,143c11,28,50,201,59,257c7,45,22,159,31,235c11,84,5,80,108,75c51-2,137-7,192-9c55-3,152-8,215-11
		c63-2,153-7,200-10s135-8,195-10c61-2,148-6,195-9s141-8,210-11s161-8,205-10c44-3,134-7,200-10s141-7,166-9c25-3,51-1,57,2
		c14,9,26,58,15,65c-8,5-92,10-338,22c-55,3-143,7-195,10c-278,14-455,23-620,30c-58,2-143,7-190,10c-101,6-453,23-567,28
		c-17,0-16,12,3,78c9,30,17,59,18,64c21,106,73,183,179,268c34,26,75,59,91,72c112,88,472,278,741,390c216,90,587,213,755,250
		c8,2,56,12,105,24c50,11,104,22,120,25c17,3,40,8,52,10c11,3,43,8,70,12c26,3,55,8,63,9c8,2,40,6,70,10c30,3,66,8,80,10
		c14,3,70,7,125,10c55,4,100,7,102,8C21301,17388,21542,17382,21626,17376z M15438,13819c29-1,54-5,57-9c2-4-7-43-20-86
		s-24-80-25-82c0-9-19-83-67-257c-30-110-56-207-58-215s-49-184-105-390s-104-382-106-390s-13-49-24-90s-22-82-25-91
		c-2-10-17-67-34-128c-30-106-38-151-25-139c3,4,19,2,35-2c16-5,29-7,29-4c0,2,36,136,80,298c44,161,82,302,85,312
		c2,11,45,170,95,354s102,376,115,425c105,392,131,480,145,479c13,0,115-15,130-19c4-1,67-12,110-20c110-19,168-26,253-30
		c43-1,80-5,83-8s6-574,7-1269l2-1263l28,1c15,1,31,2,36,3c6,0,9,508,9,1262c0,693,2,1262,5,1265c2,3,43,7,91,9c47,3,116,9,153,15
		c38,6,82,13,98,16c17,2,53,9,80,14c107,21,160,28,166,22c4-4,21-63,39-132c17-69,36-136,40-150c5-14,23-78,39-142
		c17-65,37-142,46-172c9-29,17-62,20-72c2-11,26-100,53-199s64-234,82-300c17-66,36-133,41-150c14-45,120-437,124-460
		c12-68,21-80,56-80c28,0,34,4,33,20c-2,21-11,70-14,70c-1,0-3,7-5,16c-1,9-17,68-34,130c-17,63-63,231-101,374
		c-88,324-111,408-154,565c-18,69-57,213-86,320s-60,224-70,260c-36,131-39,120,27,121c241,5,224,7,305-34c214-105,557-415,828-747
		c25-30,47-57,50-60s42-52,86-110c429-561,706-1140,783-1640c27-176,39-433,27-576c-8-91-18-179-21-184c-2-3-6-21-9-40
		c-8-55-54-205-82-273c-61-144-142-265-254-377c-83-84-98-97-171-152c-35-26-216-138-224-138c-2,0-43-18-91-40
		c-144-67-378-143-544-176c-14-3-52-11-85-18c-33-8-82-17-110-22c-27-4-57-9-65-10c-26-5-162-24-215-30c-27-3-63-7-80-9
		c-16-2-66-7-110-11c-44-3-93-8-110-10c-205-24-1080-24-1355,1c-101,9-187,17-215,20c-16,2-57,6-90,10c-53,5-114,14-220,31
		c-28,4-94,16-160,29c-16,4-39,8-50,10c-91,14-366,96-493,146c-153,61-353,173-452,254c-114,93-239,236-307,353
		c-90,152-158,385-178,605c-6,59-6,357-1,387c3,14,7,61,11,105c3,44,8,87,10,95s6,33,10,55c3,22,7,47,10,55c2,8,6,26,9,40
		c42,243,229,695,410,994c36,60,66,111,66,112c0,3,27,43,160,238c54,79,249,330,305,392c5,6,39,44,75,85c202,229,466,465,632,565
		c108,66,160,82,247,78C15351,13823,15409,13820,15438,13819z"/>
    <path d="M16137,17194c-1-1-24-4-52-7c-107-13-252-58-343-108c-360-198-558-583-510-990c35-296,212-568,473-725
		c350-210,803-178,1123,81c362,292,469,792,260,1210c-22,44-44,82-49,83c-5,2-9,8-9,14c0,36-184,223-278,282c-97,61-222,116-300,131
		c-12,2-26,6-30,9C16405,17185,16148,17203,16137,17194z"/>
</g>
</svg>
